/* XPM */
static char * close_active_xpm[] = {
"24 24 30 1",
" 	c None",
".	c #E7E8EB",
"+	c #E5D7DB",
"@	c #DE8891",
"#	c #DE5660",
"$	c #E0414C",
"%	c #DE5661",
"&	c #DF8992",
"*	c #E6DADE",
"=	c #E1ACB2",
"-	c #E0424B",
";	c #EE4B52",
">	c #F25157",
",	c #EE4A52",
"'	c #DF424D",
")	c #E1AFB5",
"!	c #E2ABB2",
"~	c #E43E48",
"{	c #E33E48",
"]	c #E6D7DC",
"^	c #E0404B",
"/	c #E0424D",
"(	c #E5D9DD",
"_	c #DE878F",
":	c #DE8A92",
"<	c #DE555F",
"[	c #DE5862",
"}	c #E1434E",
"|	c #E5D8DC",
"1	c #E6DBDE",
"........................",
"........................",
"........................",
"........................",
"........................",
"........+@#$$%&*........",
".......=-;>>>>,').......",
"......!~>>>>>>>>{)......",
".....]^>>>>>>>>>>/(.....",
"....._;>>>>>>>>>>,:.....",
".....<>>>>>>>>>>>>[.....",
".....^>>>>>>>>>>>>}.....",
".....^>>>>>>>>>>>>}.....",
".....<>>>>>>>>>>>>[.....",
"....._;>>>>>>>>>>,:.....",
".....|/>>>>>>>>>>'1.....",
"......!~>>>>>>>>{)......",
".......=-;>>>>,').......",
"........+@#$$%&*........",
"........................",
"........................",
"........................",
"........................",
"........................"};
