/* XPM */
static char * close_pressed_xpm[] = {
"24 24 48 1",
" 	c None",
".	c #E7E8EB",
"+	c #E6D8DC",
"@	c #DE8790",
"#	c #D94F5B",
"$	c #D53240",
"%	c #D63442",
"&	c #D9505C",
"*	c #DE8992",
"=	c #E6DADE",
"-	c #E1ACB2",
";	c #D63441",
">	c #D62836",
",	c #D63643",
"'	c #E2B0B6",
")	c #E1ACB3",
"!	c #D52A38",
"~	c #D52B39",
"{	c #E6D7DC",
"]	c #CE2634",
"^	c #C82533",
"/	c #C72533",
"(	c #CF2735",
"_	c #D63543",
":	c #DE8890",
"<	c #A11E2C",
"[	c #C42533",
"}	c #C32432",
"|	c #DF8B94",
"1	c #D94D59",
"2	c #D9515B",
"3	c #D7323F",
"4	c #D9515D",
"5	c #DE878F",
"6	c #C92533",
"7	c #DE8A92",
"8	c #D63542",
"9	c #CE2735",
"0	c #E6DBDE",
"a	c #E2ABB2",
"b	c #E1AFB5",
"c	c #D73643",
"d	c #E2AFB5",
"e	c #E5D7DC",
"f	c #D94E5A",
"g	c #D63240",
"h	c #D63340",
"i	c #DE8891",
"........................",
"........................",
"........................",
"........................",
"........................",
"........+@#$%&*=........",
".......-;>>>>>>,'.......",
"......)!>>>>>>>>~'......",
".....{$>]^>>>>/(>_=.....",
".....:>>/<[>>}<^>>|.....",
".....1>>>}<[}<[>>>2.....",
".....3>>>>}<<[>>>>_.....",
".....3>>>>}<<[>>>>_.....",
".....1>>>}<[}<[>>>4.....",
".....5>>/<[>>}<6>>7.....",
".....+8>9^>>>>^(>,0.....",
"......a!>>>>>>>>~b......",
".......a%>>>>>>cd.......",
"........e:fgh#i=........",
"........................",
"........................",
"........................",
"........................",
"........................"};
