/* XPM */
static char * hide_prelight_xpm[] = {
"24 24 48 1",
" 	c None",
".	c #E7E8EB",
"+	c #E6E1D6",
"@	c #E1C278",
"#	c #E3B33D",
"$	c #E6AF25",
"%	c #E1C178",
"&	c #E5E0D6",
"*	c #E3CFA0",
"=	c #E6B028",
"-	c #F6C031",
";	c #FAC536",
">	c #E6AF28",
",	c #E2CFA0",
"'	c #EBB325",
")	c #E6AF29",
"!	c #E5E1D6",
"~	c #E1C279",
"{	c #E0C27A",
"]	c #E3B33F",
"^	c #E4B441",
"/	c #DBA32B",
"(	c #C08522",
"_	c #DCA42B",
":	c #E7B027",
"<	c #E7AF26",
"[	c #DCA52C",
"}	c #C28723",
"|	c #DDA52C",
"1	c #E6AF27",
"2	c #E3B340",
"3	c #E1C37C",
"4	c #E0C37B",
"5	c #E6E1D7",
"6	c #E5AE29",
"7	c #E6AF2A",
"8	c #E5E1D7",
"9	c #E2CFA2",
"0	c #EBB225",
"a	c #E3D1A3",
"b	c #E3D0A3",
"c	c #E6B02A",
"d	c #E4AF29",
"e	c #E6E2D8",
"f	c #E0C27B",
"g	c #E4B341",
"h	c #E2B341",
"i	c #E0C37C",
"........................",
"........................",
"........................",
"........................",
"........................",
"........+@#$$#%&........",
".......*=-;;;;->*.......",
"......,';;;;;;;;',......",
".....&>;;;;;;;;;;)!.....",
".....~-;;;;;;;;;;-{.....",
".....];;;;;;;;;;;;^.....",
".....$;/((((((((_;:.....",
".....<;[}}}}}}}}|;1.....",
".....2;;;;;;;;;;;;^.....",
".....3-;;;;;;;;;;-4.....",
".....56;;;;;;;;;;78.....",
"......90;;;;;;;;0a......",
".......bc-;;;;-db.......",
"........efg>>hie........",
"........................",
"........................",
"........................",
"........................",
"........................"};
