/* XPM */
static char * maximize_pressed_xpm[] = {
"24 24 52 1",
" 	c None",
".	c #E7E8EB",
"+	c #D6E5DB",
"@	c #7FD487",
"#	c #40C949",
"$	c #21C42C",
"%	c #20C32B",
"&	c #3FC949",
"*	c #7DD585",
"=	c #A9DDAF",
"-	c #23C42D",
";	c #14C21F",
">	c #22C42C",
",	c #A5DCAB",
"'	c #17C222",
")	c #16C221",
"!	c #D7E6DC",
"~	c #11A817",
"{	c #0F9612",
"]	c #109813",
"^	c #13BA1D",
"/	c #D5E5DA",
"(	c #81D589",
"_	c #14BE1E",
":	c #0E870D",
"<	c #0C7408",
"[	c #109B13",
"}	c #7DD484",
"|	c #41C949",
"1	c #11A918",
"2	c #13BD1D",
"3	c #109913",
"4	c #3DC946",
"5	c #0E850D",
"6	c #1FC429",
"7	c #41C94B",
"8	c #80D588",
"9	c #7CD483",
"0	c #D8E6DC",
"a	c #25C42E",
"b	c #109A13",
"c	c #109812",
"d	c #11A717",
"e	c #22C52C",
"f	c #D6E5DA",
"g	c #A8DDAE",
"h	c #17C322",
"i	c #A4DCAA",
"j	c #A4DBAA",
"k	c #7ED486",
"l	c #1FC22A",
"m	c #3EC948",
"........................",
"........................",
"........................",
"........................",
"........................",
"........+@#$%&*+........",
".......=-;;;;;;>,.......",
"......=';;;;;;;;),......",
".....!-;;;~{{{]^;%/.....",
".....(;;;;_:<<<[;;}.....",
".....|;;12;_:<<3;;4.....",
".....-;;352;_:<3;;6.....",
".....-;;3<52;_:3;;6.....",
".....7;;3<<52;_1;;4.....",
".....8;;[<<<52;;;;9.....",
".....0a;^bcccd;;;ef.....",
"......gh;;;;;;;;)i......",
".......g>;;;;;;>j.......",
"........fk&%lm}f........",
"........................",
"........................",
"........................",
"........................",
"........................"};
