/* XPM */
static char * maximize_prelight_xpm[] = {
"24 24 53 1",
" 	c None",
".	c #E7E8EB",
"+	c #D3E4D8",
"@	c #78D481",
"#	c #41D14B",
"$	c #28D234",
"%	c #28D334",
"&	c #40D14A",
"*	c #77D47E",
"=	c #D1E4D6",
"-	c #9FDBA6",
";	c #2CD137",
">	c #34E544",
",	c #39EA49",
"'	c #2AD137",
")	c #9DDAA3",
"!	c #A0DCA7",
"~	c #29D735",
"{	c #28D736",
"]	c #D4E4D9",
"^	c #2DD139",
"/	c #29C233",
"(	c #1FA723",
"_	c #20A925",
":	c #34DD42",
"<	c #7BD583",
"[	c #34E543",
"}	c #37E546",
"|	c #169117",
"1	c #0B7407",
"2	c #21AC26",
"3	c #43D14E",
"4	c #2AC433",
"5	c #36E345",
"6	c #20AA25",
"7	c #2BD137",
"8	c #148C14",
"9	c #2BD238",
"0	c #45D14E",
"a	c #2BC534",
"b	c #7DD484",
"c	c #34E443",
"d	c #22AF28",
"e	c #D6E5DB",
"f	c #2CD139",
"g	c #35DF43",
"h	c #20A924",
"i	c #29C132",
"j	c #A3DBA9",
"k	c #28D634",
"l	c #2CD037",
"m	c #D5E4DA",
"n	c #42D04E",
"........................",
"........................",
"........................",
"........................",
"........................",
"........+@#$%&*=........",
".......-;>,,,,>').......",
"......!~,,,,,,,,{)......",
".....]^,,,/(((_:,'=.....",
".....<[,,,}|1112,>*.....",
".....3,,45,}|116,,&.....",
".....7,,285,}|16,,%.....",
".....9,,2185,}|6,,$.....",
".....0,,21185,}a,,#.....",
".....bc,d11185,,,>@.....",
".....ef,g2hhhi,,,;+.....",
"......jk,,,,,,,,~-......",
".......jfc,,,,[l!.......",
"........mb077n<]........",
"........................",
"........................",
"........................",
"........................",
"........................"};
