/* XPM */
static char * maximize_active_xpm[] = {
"24 24 30 1",
" 	c None",
".	c #E7E8EB",
"+	c #D7E5DB",
"@	c #7FD587",
"#	c #46D051",
"$	c #2DD23A",
"%	c #45D050",
"&	c #7ED585",
"*	c #D6E5DB",
"=	c #A8DCAE",
"-	c #2DD139",
";	c #34E443",
">	c #3AEA4A",
",	c #A5DCAB",
"'	c #2AD537",
")	c #29D537",
"!	c #A4DBAA",
"~	c #2ED13A",
"{	c #2CD139",
"]	c #D5E5DA",
"^	c #80D588",
"/	c #34E544",
"(	c #7CD583",
"_	c #48D052",
":	c #45D14E",
"<	c #2FD33B",
"[	c #D8E6DC",
"}	c #2FD03A",
"|	c #2ED139",
"1	c #D6E5DA",
"........................",
"........................",
"........................",
"........................",
"........................",
"........+@#$$%&*........",
".......=-;>>>>;-,.......",
"......='>>>>>>>>)!......",
".....*~>>>>>>>>>>{].....",
".....^;>>>>>>>>>>/(.....",
"....._>>>>>>>>>>>>:.....",
".....<>>>>>>>>>>>>{.....",
".....<>>>>>>>>>>>>{.....",
"....._>>>>>>>>>>>>:.....",
".....^;>>>>>>>>>>/(.....",
".....[}>>>>>>>>>>|1.....",
"......='>>>>>>>>)!......",
".......=-;>>>>;-,.......",
"........+@#$$%&*........",
"........................",
"........................",
"........................",
"........................",
"........................"};
